<svg width="1600" height="900" viewBox="0 0 1600 900" fill="none" xmlns="http://www.w3.org/2000/svg">
  <rect width="1600" height="900" fill="#081210"/>
  <rect width="1600" height="900" fill="url(#paint0_radial)"/>
  <rect width="1600" height="900" fill="url(#paint1_radial)"/>
  <g opacity="0.22">
    <path d="M0 180H1600" stroke="white" stroke-opacity="0.2"/>
    <path d="M0 280H1600" stroke="white" stroke-opacity="0.2"/>
    <path d="M0 380H1600" stroke="white" stroke-opacity="0.2"/>
    <path d="M0 480H1600" stroke="white" stroke-opacity="0.2"/>
    <path d="M0 580H1600" stroke="white" stroke-opacity="0.2"/>
    <path d="M0 680H1600" stroke="white" stroke-opacity="0.2"/>
    <path d="M240 0V900" stroke="white" stroke-opacity="0.2"/>
    <path d="M440 0V900" stroke="white" stroke-opacity="0.2"/>
    <path d="M640 0V900" stroke="white" stroke-opacity="0.2"/>
    <path d="M840 0V900" stroke="white" stroke-opacity="0.2"/>
    <path d="M1040 0V900" stroke="white" stroke-opacity="0.2"/>
    <path d="M1240 0V900" stroke="white" stroke-opacity="0.2"/>
  </g>
  <path d="M242 654C379.058 559.503 495.131 440.085 590.375 296.25C677.939 446.637 790.547 564.948 928.16 654" stroke="url(#paint2_linear)" stroke-width="26" stroke-linecap="round"/>
  <path d="M368 694H829" stroke="#F7F5EF" stroke-opacity="0.75" stroke-width="20" stroke-linecap="round"/>
  <circle cx="595" cy="466" r="32" fill="#7FE04B"/>
  <defs>
    <radialGradient id="paint0_radial" cx="0" cy="0" r="1" gradientUnits="userSpaceOnUse" gradientTransform="translate(1136 30) rotate(119.638) scale(691.791 972.837)">
      <stop stop-color="#3BC9A7" stop-opacity="0.28"/>
      <stop offset="1" stop-color="#3BC9A7" stop-opacity="0"/>
    </radialGradient>
    <radialGradient id="paint1_radial" cx="0" cy="0" r="1" gradientUnits="userSpaceOnUse" gradientTransform="translate(298 90) rotate(78.2095) scale(640.676 958.756)">
      <stop stop-color="#7FE04B" stop-opacity="0.22"/>
      <stop offset="1" stop-color="#7FE04B" stop-opacity="0"/>
    </radialGradient>
    <linearGradient id="paint2_linear" x1="242" y1="296.25" x2="928.16" y2="654" gradientUnits="userSpaceOnUse">
      <stop stop-color="#7FE04B"/>
      <stop offset="1" stop-color="#79F5D2"/>
    </linearGradient>
  </defs>
</svg>
